<mxfile host="app.diagrams.net" modified="2022-05-17T08:44:00.623Z" agent="5.0 (Windows NT 10.0; Win64; x64) AppleWebKit/537.36 (KHTML, like Gecko) Chrome/101.0.4951.64 Safari/537.36" etag="bBrVzkDwV07O8WpxN-K3" version="17.5.0" type="github">
  <diagram name="Page-1" id="58cdce13-f638-feb5-8d6f-7d28b1aa9fa0">
    <mxGraphModel dx="1422" dy="762" grid="1" gridSize="10" guides="1" tooltips="1" connect="1" arrows="1" fold="1" page="1" pageScale="1" pageWidth="1100" pageHeight="850" background="none" math="0" shadow="0">
      <root>
        <mxCell id="0" />
        <mxCell id="1" parent="0" />
        <mxCell id="382b91b5511bd0f7-1" value="" style="ellipse;html=1;shape=startState;fillColor=#000000;strokeColor=#ff0000;rounded=1;shadow=0;comic=0;labelBackgroundColor=none;fontFamily=Verdana;fontSize=12;fontColor=#000000;align=center;direction=south;" parent="1" vertex="1">
          <mxGeometry x="160" y="82.5" width="30" height="30" as="geometry" />
        </mxCell>
        <mxCell id="382b91b5511bd0f7-6" value="Training of Network Started" style="rounded=1;whiteSpace=wrap;html=1;arcSize=24;fillColor=#ffffc0;strokeColor=#ff0000;shadow=0;comic=0;labelBackgroundColor=none;fontFamily=Verdana;fontSize=12;fontColor=#000000;align=center;" parent="1" vertex="1">
          <mxGeometry x="115" y="282.5" width="120" height="60" as="geometry" />
        </mxCell>
        <mxCell id="2a3bc250acf0617d-8" value="Activity Diagram - PC" style="shape=umlFrame;whiteSpace=wrap;html=1;rounded=1;shadow=0;comic=0;labelBackgroundColor=none;strokeWidth=1;fontFamily=Verdana;fontSize=12;align=center;width=150;height=23;" parent="1" vertex="1">
          <mxGeometry x="40" y="40" width="510" height="672.5" as="geometry" />
        </mxCell>
        <mxCell id="zS0KnnpCiOzsgn56LhpP-1" value="Training done" style="rounded=1;whiteSpace=wrap;html=1;arcSize=24;fillColor=#ffffc0;strokeColor=#ff0000;shadow=0;comic=0;labelBackgroundColor=none;fontFamily=Verdana;fontSize=12;fontColor=#000000;align=center;" vertex="1" parent="1">
          <mxGeometry x="115" y="382.5" width="120" height="60" as="geometry" />
        </mxCell>
        <mxCell id="zS0KnnpCiOzsgn56LhpP-2" style="edgeStyle=elbowEdgeStyle;html=1;labelBackgroundColor=none;endArrow=open;endSize=8;strokeColor=#ff0000;fontFamily=Verdana;fontSize=12;align=left;exitX=0.5;exitY=1;exitDx=0;exitDy=0;entryX=0.5;entryY=0;entryDx=0;entryDy=0;" edge="1" parent="1" source="382b91b5511bd0f7-6" target="zS0KnnpCiOzsgn56LhpP-1">
          <mxGeometry relative="1" as="geometry">
            <mxPoint x="975" y="264.5" as="sourcePoint" />
            <mxPoint x="975" y="344.5" as="targetPoint" />
          </mxGeometry>
        </mxCell>
        <mxCell id="zS0KnnpCiOzsgn56LhpP-3" value="Satisfiable Accuracy&amp;nbsp;" style="rhombus;whiteSpace=wrap;html=1;fillColor=#ffffc0;strokeColor=#ff0000;" vertex="1" parent="1">
          <mxGeometry x="127.5" y="483.5" width="95" height="60" as="geometry" />
        </mxCell>
        <mxCell id="zS0KnnpCiOzsgn56LhpP-4" value="no" style="edgeStyle=orthogonalEdgeStyle;html=1;align=left;verticalAlign=bottom;endArrow=open;endSize=8;strokeColor=#ff0000;rounded=1;entryX=1;entryY=0.5;entryDx=0;entryDy=0;" edge="1" source="zS0KnnpCiOzsgn56LhpP-3" parent="1" target="382b91b5511bd0f7-6">
          <mxGeometry x="-1" relative="1" as="geometry">
            <mxPoint x="310" y="522.5" as="targetPoint" />
            <Array as="points">
              <mxPoint x="290" y="512.5" />
              <mxPoint x="290" y="312.5" />
            </Array>
          </mxGeometry>
        </mxCell>
        <mxCell id="zS0KnnpCiOzsgn56LhpP-5" value="yes" style="edgeStyle=orthogonalEdgeStyle;html=1;align=left;verticalAlign=top;endArrow=open;endSize=8;strokeColor=#ff0000;rounded=0;entryX=0.5;entryY=0;entryDx=0;entryDy=0;" edge="1" source="zS0KnnpCiOzsgn56LhpP-3" parent="1" target="zS0KnnpCiOzsgn56LhpP-7">
          <mxGeometry x="-1" relative="1" as="geometry">
            <mxPoint x="170" y="583.5" as="targetPoint" />
          </mxGeometry>
        </mxCell>
        <mxCell id="zS0KnnpCiOzsgn56LhpP-6" style="edgeStyle=elbowEdgeStyle;html=1;labelBackgroundColor=none;endArrow=open;endSize=8;strokeColor=#ff0000;fontFamily=Verdana;fontSize=12;align=left;exitX=0.5;exitY=1;exitDx=0;exitDy=0;entryX=0.5;entryY=0;entryDx=0;entryDy=0;" edge="1" parent="1" source="zS0KnnpCiOzsgn56LhpP-1" target="zS0KnnpCiOzsgn56LhpP-3">
          <mxGeometry relative="1" as="geometry">
            <mxPoint x="975" y="245.5" as="sourcePoint" />
            <mxPoint x="160" y="452.5" as="targetPoint" />
          </mxGeometry>
        </mxCell>
        <mxCell id="zS0KnnpCiOzsgn56LhpP-7" value="Export Weights and Bias to CSV" style="rounded=1;whiteSpace=wrap;html=1;arcSize=24;fillColor=#ffffc0;strokeColor=#ff0000;shadow=0;comic=0;labelBackgroundColor=none;fontFamily=Verdana;fontSize=12;fontColor=#000000;align=center;" vertex="1" parent="1">
          <mxGeometry x="115" y="602.5" width="120" height="60" as="geometry" />
        </mxCell>
        <mxCell id="zS0KnnpCiOzsgn56LhpP-8" value="Read Weights and Bias from CSV" style="rounded=1;whiteSpace=wrap;html=1;arcSize=24;fillColor=#ffffc0;strokeColor=#ff0000;shadow=0;comic=0;labelBackgroundColor=none;fontFamily=Verdana;fontSize=12;fontColor=#000000;align=center;" vertex="1" parent="1">
          <mxGeometry x="360" y="282.5" width="120" height="60" as="geometry" />
        </mxCell>
        <mxCell id="zS0KnnpCiOzsgn56LhpP-9" value="Training Needed" style="rhombus;whiteSpace=wrap;html=1;fillColor=#ffffc0;strokeColor=#ff0000;" vertex="1" parent="1">
          <mxGeometry x="137.5" y="162.5" width="75" height="70" as="geometry" />
        </mxCell>
        <mxCell id="zS0KnnpCiOzsgn56LhpP-10" value="no" style="edgeStyle=orthogonalEdgeStyle;html=1;align=left;verticalAlign=bottom;endArrow=open;endSize=8;strokeColor=#ff0000;rounded=1;entryX=0.5;entryY=0;entryDx=0;entryDy=0;" edge="1" source="zS0KnnpCiOzsgn56LhpP-9" parent="1" target="zS0KnnpCiOzsgn56LhpP-8">
          <mxGeometry x="-1" relative="1" as="geometry">
            <mxPoint x="470" y="164.5" as="targetPoint" />
          </mxGeometry>
        </mxCell>
        <mxCell id="zS0KnnpCiOzsgn56LhpP-11" value="yes" style="edgeStyle=orthogonalEdgeStyle;html=1;align=left;verticalAlign=top;endArrow=open;endSize=8;strokeColor=#ff0000;rounded=0;entryX=0.5;entryY=0;entryDx=0;entryDy=0;" edge="1" source="zS0KnnpCiOzsgn56LhpP-9" parent="1" target="382b91b5511bd0f7-6">
          <mxGeometry x="-1" relative="1" as="geometry">
            <mxPoint x="330" y="244.5" as="targetPoint" />
          </mxGeometry>
        </mxCell>
        <mxCell id="zS0KnnpCiOzsgn56LhpP-14" style="edgeStyle=elbowEdgeStyle;html=1;labelBackgroundColor=none;endArrow=open;endSize=8;strokeColor=#ff0000;fontFamily=Verdana;fontSize=12;align=left;exitX=1;exitY=0.5;exitDx=0;exitDy=0;entryX=0.5;entryY=0;entryDx=0;entryDy=0;" edge="1" parent="1" source="382b91b5511bd0f7-1" target="zS0KnnpCiOzsgn56LhpP-9">
          <mxGeometry relative="1" as="geometry">
            <mxPoint x="975" y="144.5" as="sourcePoint" />
            <mxPoint x="975" y="224.5" as="targetPoint" />
          </mxGeometry>
        </mxCell>
        <mxCell id="zS0KnnpCiOzsgn56LhpP-15" style="edgeStyle=elbowEdgeStyle;html=1;labelBackgroundColor=none;endArrow=open;endSize=8;strokeColor=#ff0000;fontFamily=Verdana;fontSize=12;align=left;exitX=1;exitY=0.5;exitDx=0;exitDy=0;entryX=0;entryY=0.5;entryDx=0;entryDy=0;" edge="1" parent="1" source="zS0KnnpCiOzsgn56LhpP-7" target="zS0KnnpCiOzsgn56LhpP-8">
          <mxGeometry relative="1" as="geometry">
            <mxPoint x="985" y="154.5" as="sourcePoint" />
            <mxPoint x="985" y="234.5" as="targetPoint" />
            <Array as="points">
              <mxPoint x="320" y="472.5" />
            </Array>
          </mxGeometry>
        </mxCell>
        <mxCell id="zS0KnnpCiOzsgn56LhpP-16" value="Export to File Structure" style="rounded=1;whiteSpace=wrap;html=1;arcSize=24;fillColor=#ffffc0;strokeColor=#ff0000;shadow=0;comic=0;labelBackgroundColor=none;fontFamily=Verdana;fontSize=12;fontColor=#000000;align=center;" vertex="1" parent="1">
          <mxGeometry x="360" y="382.5" width="120" height="60" as="geometry" />
        </mxCell>
        <mxCell id="zS0KnnpCiOzsgn56LhpP-17" style="edgeStyle=elbowEdgeStyle;html=1;labelBackgroundColor=none;endArrow=open;endSize=8;strokeColor=#ff0000;fontFamily=Verdana;fontSize=12;align=left;exitX=0.5;exitY=1;exitDx=0;exitDy=0;entryX=0.5;entryY=0;entryDx=0;entryDy=0;" edge="1" parent="1" source="zS0KnnpCiOzsgn56LhpP-8" target="zS0KnnpCiOzsgn56LhpP-16">
          <mxGeometry relative="1" as="geometry">
            <mxPoint x="245" y="642.5" as="sourcePoint" />
            <mxPoint x="370" y="322.5" as="targetPoint" />
            <Array as="points" />
          </mxGeometry>
        </mxCell>
        <mxCell id="zS0KnnpCiOzsgn56LhpP-18" style="edgeStyle=elbowEdgeStyle;html=1;labelBackgroundColor=none;endArrow=open;endSize=8;strokeColor=#ff0000;fontFamily=Verdana;fontSize=12;align=left;exitX=0.5;exitY=1;exitDx=0;exitDy=0;" edge="1" parent="1" target="zS0KnnpCiOzsgn56LhpP-19" source="zS0KnnpCiOzsgn56LhpP-16">
          <mxGeometry relative="1" as="geometry">
            <mxPoint x="420" y="458.5" as="sourcePoint" />
          </mxGeometry>
        </mxCell>
        <mxCell id="zS0KnnpCiOzsgn56LhpP-19" value="" style="ellipse;html=1;shape=endState;fillColor=#000000;strokeColor=#ff0000;rounded=1;shadow=0;comic=0;labelBackgroundColor=none;fontFamily=Verdana;fontSize=12;fontColor=#000000;align=center;" vertex="1" parent="1">
          <mxGeometry x="405" y="498.5" width="30" height="30" as="geometry" />
        </mxCell>
      </root>
    </mxGraphModel>
  </diagram>
</mxfile>
